<?xml version="1.0" encoding="UTF-8"?>
<svg id="Layer_2" data-name="Layer 2" xmlns="http://www.w3.org/2000/svg" xmlns:xlink="http://www.w3.org/1999/xlink" viewBox="0 0 128.35 128.36">
  <defs>
    <radialGradient id="radial-gradient" cx="56.05" cy="1832.39" fx="56.05" fy="1832.39" r="22.22" gradientTransform="translate(0 -436.84) scale(1 .27)" gradientUnits="userSpaceOnUse">
      <stop offset=".13" stop-color="#fef5f0" stop-opacity=".7"/>
      <stop offset=".42" stop-color="#fef6f2" stop-opacity=".7"/>
      <stop offset=".45" stop-color="#fef8f5" stop-opacity=".57"/>
      <stop offset=".49" stop-color="#fefaf8" stop-opacity=".44"/>
      <stop offset=".52" stop-color="#fefcfb" stop-opacity=".33"/>
      <stop offset=".56" stop-color="#fefdfd" stop-opacity=".26"/>
      <stop offset=".6" stop-color="#fefefe" stop-opacity=".21"/>
      <stop offset=".64" stop-color="#fff" stop-opacity=".2"/>
      <stop offset="1" stop-color="#f26522"/>
    </radialGradient>
  </defs>
  <g id="StrawTeaLogoIcon">
    <circle id="bigcircleshadow" cx="55.51" cy="67.29" r="45.81" style="stroke: #000; stroke-miterlimit: 10; stroke-width: 8px;"/>
    <path id="cup" d="m96.62,96.7c-6.27-2.66-21.43-4.53-39.14-4.53s-33.36,1.94-39.44,4.66c-1.8.81-2.79,1.68-2.79,2.59,0,1.01,1.2,1.97,3.36,2.84,6.43,2.6,21.41,4.42,38.87,4.42s31.95-1.76,38.55-4.29c2.36-.9,3.68-1.91,3.68-2.96,0-.96-1.1-1.88-3.09-2.72Z" style="fill: #c1272d; stroke-width: 0px;"/>
    <path id="cupbody" d="m18.66,64.46c3.22,20.29,19.31,35.72,38.68,35.72s35.39-15.36,38.66-35.58c-6.59,2.87-21.35,4.88-38.51,4.88s-32.4-2.07-38.83-5.01Z" style="fill: #f26522; stroke-width: 0px;"/>
    <path id="cuphandle" d="m105.35,85.23c-4.16,1.14-8.34.14-11.12-2.28-.35.57-.91,1.07-1.62,1.41-1.62.78-3.42.41-4.02-.83-.6-1.24.23-2.88,1.85-3.66s3.42-.41,4.02.83c.26.53.25,1.14.03,1.72,1.89,1.05,4.19,1.39,6.47.76,4.54-1.25,7.24-5.85,6.02-10.27-1.22-4.42-5.88-7-10.43-5.75-.77.21-1.48.53-2.13.91,1.45-1.36,3.28-2.41,5.39-2.99,6.26-1.72,12.58,1.39,14.11,6.96,1.53,5.56-2.3,11.47-8.57,13.19Z" style="fill: #c1272d; stroke-width: 0px;"/>
    <ellipse id="handlecircle" cx="91.49" cy="82.14" rx="2.43" ry="1.86" transform="translate(-26.61 47.92) rotate(-25.76)" style="fill: #f26522; stroke-width: 0px;"/>
    <path id="handle" d="m113.98,72.16c-1.53-5.56-7.85-8.68-14.11-6.96-.04.01-.08.03-.12.04-1.45.55-2.75,1.33-3.85,2.28.23-.09.47-.17.72-.24.04-.01.08-.02.12-.03.3-.12.61-.23.93-.32,4.54-1.25,9.21,1.32,10.43,5.75,1.22,4.42-1.48,9.02-6.02,10.27-.03,0-.05.01-.08.02-.31.13-.63.24-.97.33-.99.27-1.99.36-2.96.28,0,.08,0,.15,0,.23,0,.21,0,.42-.02.62,2.47,1.1,5.44,1.38,8.41.56.06-.02.11-.03.17-.05,5.53-2.11,8.77-7.6,7.35-12.79Z" style="fill: #f26522; stroke-width: 0px;"/>
    <path d="m99.29,61.48c-6.7-2.84-22.91-4.85-41.86-4.85s-35.67,2.07-42.17,4.99c-1.92.86-2.98,1.8-2.98,2.77,0,1.08,1.28,2.1,3.59,3.04,6.88,2.78,22.9,4.72,41.56,4.72s34.17-1.89,41.22-4.59c2.52-.97,3.94-2.04,3.94-3.17,0-1.03-1.18-2.01-3.3-2.91Z" style="fill: #f26522; stroke-width: 0px;"/>
    <ellipse id="cup-2" data-name="cup" cx="55.84" cy="61.73" rx="40.67" ry="7.94" style="fill: #c1272d; stroke-width: 0px;"/>
    <g id="cream" style="opacity: .59;">
      <ellipse cx="56.05" cy="61.09" rx="22.22" ry="6.04" style="fill: url(#radial-gradient); stroke-width: 0px;"/>
    </g>
    <g id="shadowberryright">
      <path d="m90.01,56.65c-2.43,12.79-27.2,13.22-32.5,12.6-.22-.03-.75-.09-1.3-.47-5.63-3.89-.37-32.33,12.48-34.5,9.79-1.66,23.28,12.05,21.32,22.38Z" style="fill: #8a3600; stroke-width: 0px;"/>
    </g>
    <g id="rightbody">
      <path d="m91.74,55.22c-2.43,12.79-27.2,13.22-32.5,12.6-.22-.03-.75-.09-1.3-.47-5.63-3.89-.37-32.33,12.48-34.5,9.79-1.66,23.28,12.05,21.32,22.38Z" style="fill: #ed1c24; stroke-width: 0px;"/>
    </g>
    <g id="rightbodyshadow">
      <path d="m59.99,65.2c-.19-.02-.67-.08-1.15-.42-2.35-1.62-2.56-8.04-.95-14.6-2.34,7.35-2.4,15.28.24,17.11.48.33.96.4,1.15.42,4.7.55,26.69.17,28.85-11.18.03-.17.06-.34.08-.52-4.21,9.4-23.81,9.7-28.22,9.19Z" style="fill: #c1272d; stroke-width: 0px;"/>
    </g>
    <ellipse id="seed13" cx="70.31" cy="48.34" rx="2.59" ry=".77" transform="translate(-13.59 63.88) rotate(-45)" style="fill: #c1272d; stroke-width: 0px;"/>
    <ellipse id="seed12" cx="76.76" cy="55.94" rx="2.59" ry=".77" transform="translate(-17.07 70.66) rotate(-45)" style="fill: #c1272d; stroke-width: 0px;"/>
    <ellipse id="seed11" cx="69.76" cy="58.59" rx="2.59" ry=".77" transform="translate(-20.99 66.49) rotate(-45)" style="fill: #c1272d; stroke-width: 0px;"/>
    <ellipse id="seed10" cx="66" cy="53.81" rx="2.59" ry=".77" transform="translate(-18.72 62.43) rotate(-45)" style="fill: #c1272d; stroke-width: 0px;"/>
    <ellipse id="seed9" cx="66.38" cy="41.61" rx="2.59" ry=".77" transform="translate(-9.98 59.13) rotate(-45)" style="fill: #c1272d; stroke-width: 0px;"/>
    <ellipse id="seed8" cx="62.45" cy="50.32" rx="2.59" ry=".77" transform="translate(-17.29 58.9) rotate(-45)" style="fill: #c1272d; stroke-width: 0px;"/>
    <ellipse id="seed7" cx="63.8" cy="64.52" rx="2.59" ry=".77" transform="translate(-26.93 64.01) rotate(-45)" style="fill: #c1272d; stroke-width: 0px;"/>
    <ellipse id="seed6" cx="60.36" cy="60.91" rx="2.59" ry=".77" transform="translate(-25.39 60.52) rotate(-45)" style="fill: #c1272d; stroke-width: 0px;"/>
    <ellipse id="seed5" cx="73.78" cy="62.64" rx="2.59" ry=".77" transform="translate(-22.68 70.52) rotate(-45)" style="fill: #c1272d; stroke-width: 0px;"/>
    <ellipse id="seed4" cx="83.7" cy="59.01" rx="2.59" ry=".77" transform="translate(-17.21 76.47) rotate(-45)" style="fill: #c1272d; stroke-width: 0px;"/>
    <path id="leaf" d="m93.98,47.95c-6.08-5.12-7.9-5.45-8.32-4.59-.63,1.28.99,6.93,4.04,7.53,2.49.49,4.19-2.75,4.28-2.94Z" style="fill: #c1272d; stroke-width: 0px;"/>
    <path id="leaf-2" data-name="leaf" d="m92.43,55.08c-4.5-9.53-6.55-11.4-7.57-11.08-1.52.48-2.82,6.51.59,9.69,2.79,2.6,6.76,1.46,6.98,1.39Z" style="fill: #c1272d; stroke-width: 0px;"/>
    <path id="leaf-3" data-name="leaf" d="m85.38,44.67c-11.23-3.76-14.58-3.98-15.36-3.34-1.16.96,1.86,5.15,7.48,5.57,4.6.34,7.7-2.08,7.88-2.22Z" style="fill: #c1272d; stroke-width: 0px;"/>
    <path id="leaf-4" data-name="leaf" d="m75.7,30.77c10.12,8.87,12.07,12.05,11.68,13.21-.57,1.73-7.12,1.26-10.42-4.06-2.71-4.35-1.34-8.89-1.26-9.15Z" style="fill: #c1272d; stroke-width: 0px;"/>
    <g id="shadowberryleft">
      <path d="m25.96,39.24c-1.23,12.96,22.44,20.29,27.7,21.17.21.04.75.12,1.38-.09,6.49-2.17,9.37-30.94-2.36-36.62-8.94-4.32-25.72,5.08-26.71,15.54Z" style="fill: #8a3600; stroke-width: 0px;"/>
    </g>
    <g id="leftbody">
      <path d="m25.52,37.17c-1.23,12.96,22.44,20.29,27.7,21.17.21.04.75.12,1.38-.09,6.49-2.17,9.37-30.94-2.36-36.62-8.94-4.32-25.72,5.08-26.71,15.54Z" style="fill: #ed1c24; stroke-width: 0px;"/>
    </g>
    <g id="leftbodyshadow">
      <path d="m59.11,38.96c-.35,7.04-2.45,13.34-5.28,14.29-.59.2-1.1.12-1.3.09-4.46-.75-22.92-6.4-25.79-16.4-.13.51-.22,1.03-.27,1.55-1.16,12.23,21.16,19.13,26.13,19.97.2.03.7.11,1.3-.09,3.51-1.17,5.9-10.58,5.22-19.41Z" style="fill: #c1272d; stroke-width: 0px;"/>
    </g>
    <ellipse id="seed3" cx="32.51" cy="43.34" rx=".77" ry="2.59" transform="translate(-18.78 25.91) rotate(-34.36)" style="fill: #c1272d; stroke-width: 0px;"/>
    <ellipse id="seed2" cx="51.24" cy="28.62" rx=".77" ry="2.59" transform="translate(-7.21 33.91) rotate(-34.36)" style="fill: #c1272d; stroke-width: 0px;"/>
    <ellipse id="seed1" cx="52.89" cy="36.74" rx=".77" ry="2.59" transform="translate(-11.51 36.26) rotate(-34.36)" style="fill: #c1272d; stroke-width: 0px;"/>
    <ellipse id="seed23" cx="55.98" cy="44.26" rx=".38" ry="2.59" transform="translate(-15.21 39.31) rotate(-34.36)" style="fill: #c1272d; stroke-width: 0px;"/>
    <ellipse id="seed22" cx="43.28" cy="37.84" rx=".77" ry="2.59" transform="translate(-13.8 31.03) rotate(-34.36)" style="fill: #c1272d; stroke-width: 0px;"/>
    <ellipse id="seed21" cx="46.9" cy="33.94" rx=".77" ry="2.59" transform="translate(-10.97 32.39) rotate(-34.36)" style="fill: #c1272d; stroke-width: 0px;"/>
    <ellipse id="seed20" cx="49.7" cy="41.59" rx=".77" ry="2.59" transform="translate(-14.8 35.3) rotate(-34.36)" style="fill: #c1272d; stroke-width: 0px;"/>
    <ellipse id="seed19" cx="44.81" cy="45.5" rx=".77" ry="2.59" transform="translate(-17.86 33.23) rotate(-34.36)" style="fill: #c1272d; stroke-width: 0px;"/>
    <ellipse id="seed18" cx="37.73" cy="40.35" rx=".77" ry="2.59" transform="translate(-16.19 28.33) rotate(-34.36)" style="fill: #c1272d; stroke-width: 0px;"/>
    <ellipse id="seed17" cx="39.88" cy="48.3" rx=".77" ry="2.59" transform="translate(-20.3 30.93) rotate(-34.36)" style="fill: #c1272d; stroke-width: 0px;"/>
    <ellipse id="seed16" cx="51.31" cy="52.3" rx=".77" ry="2.59" transform="translate(-20.57 38.08) rotate(-34.36)" style="fill: #c1272d; stroke-width: 0px;"/>
    <ellipse id="seed15" cx="45.57" cy="51.83" rx=".77" ry="2.59" transform="translate(-21.3 34.76) rotate(-34.36)" style="fill: #c1272d; stroke-width: 0px;"/>
    <ellipse id="seed14" cx="54.02" cy="47.91" rx=".77" ry="2.59" transform="translate(-17.61 38.84) rotate(-34.36)" style="fill: #c1272d; stroke-width: 0px;"/>
    <path id="leaf-5" data-name="leaf" d="m43.67,14.93c-7.69,7.21-8.85,9.73-8.23,10.6.93,1.3,7.06.69,9.04-3.53,1.62-3.45-.68-6.88-.82-7.07Z" style="fill: #c1272d; stroke-width: 0px;"/>
    <path id="leaf-6" data-name="leaf" d="m46.67,22c-10.46,1.33-12.87,2.69-12.88,3.76-.01,1.6,5.32,4.7,9.4,2.44,3.34-1.84,3.48-5.97,3.49-6.21Z" style="fill: #c1272d; stroke-width: 0px;"/>
    <path id="leaf-7" data-name="leaf" d="m35.96,24.37c-10.89,4.38-13.48,6.4-13.56,7.43-.13,1.54,5.15,2.93,9.52-.44,3.57-2.76,4.02-6.77,4.04-6.99Z" style="fill: #c1272d; stroke-width: 0px;"/>
    <path id="leaf-8" data-name="leaf" d="m35.1,24.64c-7.06,9.51-8.31,12.63-7.94,13.56.55,1.4,5.47-.17,7.61-5.39,1.75-4.27.41-7.97.33-8.18Z" style="fill: #c1272d; stroke-width: 0px;"/>
    <text transform="translate(31.97 21.83) rotate(-18.56)" style="fill: #1a1a1a; font-family: Pacifico-Regular, Pacifico; font-size: 18.27px; stroke: #fff; stroke-miterlimit: 10; stroke-width: .25px;"><tspan x="0" y="0">S</tspan></text>
    <text transform="translate(43.34 18.19) rotate(-9.05)" style="fill: #1a1a1a; font-family: Pacifico-Regular, Pacifico; font-size: 18.27px; stroke: #fff; stroke-miterlimit: 10; stroke-width: .25px;"><tspan x="0" y="0">t</tspan></text>
    <text transform="translate(49.99 17.06) rotate(-1.59)" style="fill: #1a1a1a; font-family: Pacifico-Regular, Pacifico; font-size: 18.27px; stroke: #fff; stroke-miterlimit: 10; stroke-width: .25px;"><tspan x="0" y="0">r</tspan></text>
    <text transform="translate(57.85 16.8) rotate(6.52)" style="fill: #1a1a1a; font-family: Pacifico-Regular, Pacifico; font-size: 18.27px; stroke: #fff; stroke-miterlimit: 10; stroke-width: .25px;"><tspan x="0" y="0">a</tspan></text>
    <text transform="translate(66.01 17.5) rotate(17.1)" style="fill: #1a1a1a; font-family: Pacifico-Regular, Pacifico; font-size: 18.27px; stroke: #fff; stroke-miterlimit: 10; stroke-width: .25px;"><tspan x="0" y="0">w</tspan></text>
    <text transform="translate(77.58 20.99) rotate(29.51)" style="fill: #ed1c24; font-family: Pacifico-Regular, Pacifico; font-size: 18.27px; stroke: #fff; stroke-miterlimit: 10; stroke-width: .25px;"><tspan x="0" y="0">T</tspan></text>
    <text transform="translate(86.81 26.26) rotate(37.56)" style="fill: #ed1c24; font-family: Pacifico-Regular, Pacifico; font-size: 18.27px; stroke: #fff; stroke-miterlimit: 10; stroke-width: .25px;"><tspan x="0" y="0">e</tspan></text>
    <text transform="translate(92.13 30.26) rotate(44.96)" style="fill: #ed1c24; font-family: Pacifico-Regular, Pacifico; font-size: 18.27px; stroke: #fff; stroke-miterlimit: 10; stroke-width: .25px;"><tspan x="0" y="0">a</tspan></text>
    <text transform="translate(97.73 35.96) rotate(51.32)" style="font-family: Pacifico-Regular, Pacifico; font-size: 18.27px; stroke: #fff; stroke-miterlimit: 10; stroke-width: .25px;"><tspan x="0" y="0"> </tspan></text>
    <text transform="translate(100.71 39.19) rotate(59.73)" style="font-family: Pacifico-Regular, Pacifico; font-size: 18.27px; stroke: #fff; stroke-miterlimit: 10; stroke-width: .25px;"><tspan x="0" y="0">C</tspan></text>
    <text transform="translate(106.63 49.57) rotate(70.02)" style="font-family: Pacifico-Regular, Pacifico; font-size: 18.27px; stroke: #fff; stroke-miterlimit: 10; stroke-width: .25px;"><tspan x="0" y="0">a</tspan></text>
    <text transform="translate(109.34 57.07) rotate(77.34)" style="font-family: Pacifico-Regular, Pacifico; font-size: 18.27px; stroke: #fff; stroke-miterlimit: 10; stroke-width: .25px;"><tspan x="0" y="0">f</tspan></text>
    <text transform="translate(110.81 63.26) rotate(84.79) scale(1.14 1)" style="fill: #c1272d; font-family: Pacifico-Regular, Pacifico; font-size: 18.27px; stroke: #fff; stroke-miterlimit: 10; stroke-width: .25px;"><tspan x="0" y="0">é</tspan></text>
  </g>
</svg>